<svg xmlns="http://www.w3.org/2000/svg" viewBox="560 220 1100 1100"><rect x="560" y="220" width="1100" height="1100" fill="#FDFDFC"/><path fill="#074B5B" d="M816 302c5.626 2.25 5.626 2.25 8.39 4.18l1.872 1.295 1.988 1.4 2.127 1.48q3.317 2.314 6.623 4.645l2.034 1.432q4.064 2.865 8.122 5.738c6.03 4.267 12.09 8.49 18.157 12.705a7938 7938 0 0 1 26.785 18.691q4.976 3.487 9.96 6.961c8.111 5.657 16.19 11.35 24.192 17.16a794 794 0 0 0 18.791 13.227c5.48 3.745 10.908 7.56 16.325 11.397a3232 3232 0 0 0 19.09 13.383 787 787 0 0 1 12.603 8.978l2.455 1.79q2.292 1.675 4.576 3.364l2.09 1.53c.595.44 1.19.88 1.804 1.332 5.507 3.583 9.866 4.745 16.398 4.66l2.515.003c2.774 0 5.548-.021 8.322-.042l5.98-.009q6.444-.01 12.886-.044c6.828-.036 13.656-.05 20.483-.06 13.309-.025 26.617-.071 39.926-.12 16.832-.06 33.665-.111 50.498-.142q8.485-.015 16.97-.054c20.571-.097 41.109-.185 61.653 1.016l2.098.122c50.016 3.007 97.592 15.57 142.287 37.982l2.258 1.125c19.043 9.559 36.815 21.363 52.492 35.809a203 203 0 0 0 6.063 5.316c38.818 34.045 63.75 83.43 73.187 133.75l.594 3.025c5.963 31.418 6.248 66.515.406 97.975l-.504 2.816c-8.879 48.283-30.444 90.817-64.496 126.184l-1.67 1.736c-7.379 7.627-14.895 14.796-23.33 21.264l-1.804 1.397c-9.097 7.032-18.35 13.658-28.196 19.603l-2.315 1.406C1351.142 954.85 1296.753 968.364 1244 972l-3.436.25c-11.996.799-23.945.885-35.965.864h-6.704q-8.902-.001-17.805-.013-8.382-.007-16.764-.006c-16.296-.006-32.592-.02-48.889-.033L1004 973v262H816c-.524-106.049-.524-106.049-.635-150.342q-.037-15.207-.08-30.414l-.01-3.85c-.056-20.502-.158-41.003-.278-61.504q-.182-31.57-.22-63.14a5754 5754 0 0 0-.18-38.947c-.069-8.908-.09-17.815-.073-26.723.009-5.136-.004-10.271-.074-15.407a617 617 0 0 1-.022-14.13q.01-2.545-.051-5.089c-.256-11.2 1.91-17.432 9.738-25.626a292 292 0 0 1 3.378-3.334c1.948-1.931 3.673-4.007 5.382-6.15l1.585-1.945L836 786.5a725 725 0 0 1 15.457-18.258c3.079-3.531 6.094-7.1 9.043-10.742 4.078-5.033 8.305-9.923 12.558-14.808 4.918-5.652 9.764-11.36 14.59-17.09q2.078-2.46 4.164-4.914c4.234-4.985 8.444-9.982 12.563-15.063 3.52-4.327 7.144-8.549 10.813-12.75 5.35-6.131 10.554-12.37 15.71-18.665 4.041-4.933 8.133-9.817 12.266-14.673a560 560 0 0 0 8.461-10.225c3.577-4.398 7.321-8.605 11.137-12.796 3.047-3.425 5.915-6.982 8.8-10.543 4.2-5.121 8.537-10.123 12.859-15.14q4.013-4.662 8.016-9.333l1.467-1.706 1.405-1.638 1.35-1.574a363 363 0 0 0 4.126-4.988L1003 589h1l1 233 104.938-.25 33.007-.048c13.408-.045 13.408-.045 19.705-.072q6.53-.023 13.06-.022c42.837 0 88.736-.92 122.29-31.608l1.538-1.396c21.662-19.95 32.432-48.921 33.7-78.014.777-32.574-8.387-62.052-30.793-86.13-12.822-12.903-27.908-21.968-45.07-27.898l-2.608-.926c-17.202-5.533-34.857-6.96-52.798-6.823l-2.388.013c-7.353.043-14.705.114-22.056.287-33.812.751-33.812.751-45.47-10.074l-1.594-1.601c-1.96-1.928-4.125-3.449-6.39-4.997q-1.974-1.438-3.946-2.879c-6.92-5.027-13.944-9.884-21.021-14.689-6.168-4.2-12.227-8.536-18.262-12.925a1109 1109 0 0 0-16.905-12.01l-2.542-1.775-4.996-3.487a2116 2116 0 0 1-30.458-21.68c-5.607-4.057-11.264-8.039-16.941-11.996-10.163-7.086-20.21-14.326-30.225-21.62-9.127-6.648-18.324-13.16-27.665-19.503-6.24-4.25-12.372-8.632-18.479-13.07-7.125-5.177-14.318-10.257-21.522-15.323q-4.245-2.988-8.483-5.983l-4.24-2.992a4466 4466 0 0 1-10.812-7.65C879.465 399.11 871.317 393.45 863 388c.73 3.987 2.587 7.394 4.418 10.965l2.193 4.331 1.178 2.318c2.082 4.102 4.14 8.215 6.2 12.327l1.3 2.594 4.024 8.027 1.412 2.82c5.448 10.88 10.84 21.773 16.002 32.792 2.986 6.3 6.142 12.503 9.34 18.697l1.376 2.668q3.443 6.672 6.919 13.327l2.552 4.923 1.204 2.285c3.61 6.987 3.61 6.987 3.882 10.926-1.555 2.29-1.555 2.29-3.875 4.625-3.319 3.467-6.488 6.95-9.5 10.688-3.782 4.67-7.64 9.266-11.534 13.844a588 588 0 0 0-8.716 10.53c-3.577 4.399-7.321 8.606-11.137 12.797-3.043 3.42-5.909 6.973-8.789 10.532-2.767 3.372-5.6 6.68-8.449 9.984-3.555 4.125-7.068 8.272-10.5 12.5-6.395 7.87-13.056 15.516-19.687 23.188l-3.125 3.625-1.515 1.757a239 239 0 0 0-9.966 12.453L817 645h-1z"/><path fill="#074B5B" d="m940 605 3 1-2.527 2.895C930.267 620.61 930.267 620.61 925.5 626.5c-4.116 5.084-8.395 10.014-12.694 14.942a414 414 0 0 0-9.556 11.37 229 229 0 0 1-8.812 10.25c-3.603 3.957-6.966 8.042-10.278 12.243-2.938 3.665-5.982 7.235-9.027 10.812a560 560 0 0 0-8.508 10.258c-5.18 6.362-10.58 12.528-15.965 18.715-8.554 9.842-16.952 19.79-25.11 29.965l-2.425 3.008-2.18 2.722C819 753 819 753 816 755v-82l28-15c12.984-6.986 25.898-14.042 38.708-21.336 6.619-3.756 13.31-7.338 20.064-10.843 8.508-4.441 16.84-9.19 25.181-13.938l2.631-1.491a178 178 0 0 0 4.535-2.698c1.586-.969 3.23-1.842 4.881-2.694"/></svg>
